<svg width="24" height="24" viewBox="0 0 24 24" fill="none" xmlns="http://www.w3.org/2000/svg">
<path d="M21.4285 6.42847H2.5714C1.62463 6.42847 0.857117 7.19598 0.857117 8.14275V20.1428C0.857117 21.0895 1.62463 21.857 2.5714 21.857H21.4285C22.3753 21.857 23.1428 21.0895 23.1428 20.1428V8.14275C23.1428 7.19598 22.3753 6.42847 21.4285 6.42847Z" stroke="#FBFBFB" stroke-width="1.71429" stroke-linecap="round" stroke-linejoin="round"/>
<path d="M12 17.5715C13.8935 17.5715 15.4286 16.0365 15.4286 14.1429C15.4286 12.2494 13.8935 10.7144 12 10.7144C10.1064 10.7144 8.57141 12.2494 8.57141 14.1429C8.57141 16.0365 10.1064 17.5715 12 17.5715Z" stroke="#FBFBFB" stroke-width="1.71429" stroke-linecap="round" stroke-linejoin="round"/>
<path d="M16.2857 6.42854V3.85711C16.2857 3.40245 16.105 2.96642 15.7836 2.64492C15.4621 2.32343 15.026 2.14282 14.5714 2.14282H9.42852C8.97386 2.14282 8.53783 2.32343 8.21634 2.64492C7.89485 2.96642 7.71423 3.40245 7.71423 3.85711V6.42854" stroke="#FBFBFB" stroke-width="1.71429" stroke-linecap="round" stroke-linejoin="round"/>
</svg>
