<svg width="24" height="24" viewBox="0 0 24 24" fill="none" xmlns="http://www.w3.org/2000/svg">
<path d="M5.99997 6.85718H2.5714C1.62463 6.85718 0.857117 7.62469 0.857117 8.57146V15.4286C0.857117 16.3754 1.62463 17.1429 2.5714 17.1429H5.99997C6.94675 17.1429 7.71426 16.3754 7.71426 15.4286V8.57146C7.71426 7.62469 6.94675 6.85718 5.99997 6.85718Z" stroke="#FBFBFB" stroke-width="1.71429" stroke-linecap="round" stroke-linejoin="round"/>
<path d="M21.4286 6.85718H18C17.0532 6.85718 16.2857 7.62469 16.2857 8.57146V15.4286C16.2857 16.3754 17.0532 17.1429 18 17.1429H21.4286C22.3753 17.1429 23.1428 16.3754 23.1428 15.4286V8.57146C23.1428 7.62469 22.3753 6.85718 21.4286 6.85718Z" stroke="#FBFBFB" stroke-width="1.71429" stroke-linecap="round" stroke-linejoin="round"/>
<path d="M7.71423 12H16.2857" stroke="#FBFBFB" stroke-width="1.71429" stroke-linecap="round" stroke-linejoin="round"/>
</svg>
