<svg width="15" height="14" viewBox="0 0 15 14" fill="none" xmlns="http://www.w3.org/2000/svg">
<g clip-path="url(#clip0_52_561)">
<path d="M9.51953 9.5C12.0048 9.5 14.0195 7.48528 14.0195 5C14.0195 2.51472 12.0048 0.5 9.51953 0.5C7.03425 0.5 5.01953 2.51472 5.01953 5C5.01953 7.48528 7.03425 9.5 9.51953 9.5Z" stroke="#FBFBFB" stroke-linecap="round" stroke-linejoin="round"/>
<path d="M1.01953 13.5L6.59953 8.42999" stroke="#FBFBFB" stroke-linecap="round" stroke-linejoin="round"/>
<path d="M9.01953 4C9.29567 4 9.51953 3.77614 9.51953 3.5C9.51953 3.22386 9.29567 3 9.01953 3C8.74339 3 8.51953 3.22386 8.51953 3.5C8.51953 3.77614 8.74339 4 9.01953 4Z" stroke="#FBFBFB" stroke-linecap="round" stroke-linejoin="round"/>
</g>
<defs>
<clipPath id="clip0_52_561">
<rect width="14" height="14" fill="white" transform="translate(0.519531)"/>
</clipPath>
</defs>
</svg>
