<svg width="24" height="24" viewBox="0 0 24 24" fill="none" xmlns="http://www.w3.org/2000/svg">
<g clip-path="url(#clip0_72_354)">
<path d="M13.5771 22.6457L12.5657 23.04C12.201 23.1767 11.799 23.1767 11.4343 23.04L10.4229 22.6457C7.86099 21.6413 5.6605 19.8895 4.10742 17.618C2.55434 15.3465 1.7205 12.6603 1.71428 9.90855V5.14283C3.6557 5.41952 5.63581 5.16746 7.44599 4.41322C9.25618 3.65897 10.8294 2.43046 12 0.857117C14.1429 3.97712 17.6914 5.4514 22.2857 5.14283V9.90855C22.2795 12.6603 21.4457 15.3465 19.8926 17.618C18.3395 19.8895 16.139 21.6413 13.5771 22.6457V22.6457Z" stroke="#FBFBFB" stroke-width="1.71429" stroke-linecap="round" stroke-linejoin="round"/>
<g clip-path="url(#clip1_72_354)">
<path d="M11.4 5.53004C11.3395 5.49392 11.2704 5.47485 11.2 5.47485C11.1296 5.47485 11.0605 5.49392 11 5.53004C10.9501 5.56955 10.9165 5.62598 10.9054 5.68864C10.8944 5.7513 10.9067 5.81584 10.94 5.87004C12.17 8.00004 12.43 10.9 10.75 12.5C10.1036 11.9569 9.59047 11.2726 9.25 10.5C8.62873 10.8451 8.11385 11.3537 7.76127 11.9708C7.40868 12.5878 7.23186 13.2896 7.25 14C7.27536 14.6263 7.42574 15.2412 7.69227 15.8085C7.95881 16.3758 8.33613 16.8841 8.80202 17.3034C9.26791 17.7227 9.81296 18.0445 10.4051 18.25C10.9973 18.4556 11.6245 18.5406 12.25 18.5C15.47 18.5 17.14 16.5 17.25 14C17.38 11 15.25 7.31004 11.4 5.53004Z" stroke="#FBFBFB" stroke-linecap="round" stroke-linejoin="round"/>
<path d="M14.75 14C14.75 14.5304 14.5393 15.0391 14.1642 15.4142C13.7891 15.7893 13.2804 16 12.75 16" stroke="#FBFBFB" stroke-linecap="round" stroke-linejoin="round"/>
</g>
</g>
<defs>
<clipPath id="clip0_72_354">
<rect width="24" height="24" fill="white"/>
</clipPath>
<clipPath id="clip1_72_354">
<rect width="14" height="14" fill="white" transform="translate(5.25 5)"/>
</clipPath>
</defs>
</svg>
