<svg width="24" height="24" viewBox="0 0 24 24" fill="none" xmlns="http://www.w3.org/2000/svg">
<g clip-path="url(#clip0_72_293)">
<path d="M10.1486 19.44C15.2801 19.44 19.44 15.2801 19.44 10.1485C19.44 5.01703 15.2801 0.857117 10.1486 0.857117C5.01706 0.857117 0.857147 5.01703 0.857147 10.1485C0.857147 15.2801 5.01706 19.44 10.1486 19.44Z" stroke="#FBFBFB" stroke-width="1.71429" stroke-linecap="round" stroke-linejoin="round"/>
<path d="M23.1429 23.1428L16.7143 16.7142" stroke="#FBFBFB" stroke-width="1.71429" stroke-linecap="round" stroke-linejoin="round"/>
<g clip-path="url(#clip1_72_293)">
<path d="M9.15002 3.53004C9.08956 3.49392 9.02044 3.47485 8.95002 3.47485C8.87959 3.47485 8.81048 3.49392 8.75002 3.53004C8.70015 3.56955 8.66649 3.62598 8.65544 3.68864C8.64438 3.7513 8.65668 3.81584 8.69002 3.87004C9.92002 6.00004 10.18 8.90004 8.50002 10.5C7.85364 9.95686 7.34048 9.27265 7.00002 8.50004C6.37875 8.84509 5.86387 9.35374 5.51128 9.97076C5.1587 10.5878 4.98188 11.2896 5.00002 12C5.02538 12.6263 5.17575 13.2412 5.44229 13.8085C5.70883 14.3758 6.08614 14.8841 6.55203 15.3034C7.01793 15.7227 7.56298 16.0445 8.15512 16.25C8.74727 16.4556 9.37453 16.5406 10 16.5C13.22 16.5 14.89 14.5 15 12C15.13 9.00004 13 5.31004 9.15002 3.53004Z" stroke="#FBFBFB" stroke-linecap="round" stroke-linejoin="round"/>
<path d="M12.5 12C12.5 12.5304 12.2893 13.0391 11.9142 13.4142C11.5392 13.7893 11.0305 14 10.5 14" stroke="#FBFBFB" stroke-linecap="round" stroke-linejoin="round"/>
</g>
</g>
<defs>
<clipPath id="clip0_72_293">
<rect width="24" height="24" fill="white"/>
</clipPath>
<clipPath id="clip1_72_293">
<rect width="14" height="14" fill="white" transform="translate(3 3)"/>
</clipPath>
</defs>
</svg>
