<svg width="24" height="24" viewBox="0 0 24 24" fill="none" xmlns="http://www.w3.org/2000/svg">
<path d="M16.2857 2.57141H18.8572C19.3118 2.57141 19.7479 2.75202 20.0693 3.07351C20.3908 3.395 20.5714 3.83104 20.5714 4.2857V21.4286C20.5714 21.8832 20.3908 22.3192 20.0693 22.6407C19.7479 22.9622 19.3118 23.1428 18.8572 23.1428H5.14287C4.68822 23.1428 4.25218 22.9622 3.93069 22.6407C3.6092 22.3192 3.42859 21.8832 3.42859 21.4286V4.2857C3.42859 3.83104 3.6092 3.395 3.93069 3.07351C4.25218 2.75202 4.68822 2.57141 5.14287 2.57141H7.7143" stroke="#FBFBFB" stroke-width="1.71429" stroke-linecap="round" stroke-linejoin="round"/>
<path d="M14.5714 0.857117H9.42858C8.48181 0.857117 7.71429 1.62463 7.71429 2.5714V3.42854C7.71429 4.37532 8.48181 5.14283 9.42858 5.14283H14.5714C15.5182 5.14283 16.2857 4.37532 16.2857 3.42854V2.5714C16.2857 1.62463 15.5182 0.857117 14.5714 0.857117Z" stroke="#FBFBFB" stroke-width="1.71429" stroke-linecap="round" stroke-linejoin="round"/>
<path d="M7.71429 14.5714L11.1429 17.1428L15.4286 10.2857" stroke="#FBFBFB" stroke-width="1.71429" stroke-linecap="round" stroke-linejoin="round"/>
</svg>
