<svg width="24" height="24" viewBox="0 0 24 24" fill="none" xmlns="http://www.w3.org/2000/svg">
<g clip-path="url(#clip0_72_39)">
<path d="M10.5429 0.908631C10.4392 0.846718 10.3207 0.814026 10.2 0.814026C10.0793 0.814026 9.96078 0.846718 9.85714 0.908631C9.77164 0.97637 9.71396 1.07311 9.695 1.18052C9.67604 1.28794 9.69713 1.39858 9.75428 1.49149C11.8629 5.14292 12.3086 10.1143 9.42856 12.8572C8.3205 11.926 7.44079 10.7531 6.85714 9.42863C5.7921 10.0201 4.90945 10.8921 4.30502 11.9499C3.70059 13.0076 3.39747 14.2108 3.42857 15.4286C3.47204 16.5023 3.72982 17.5563 4.18675 18.5288C4.64367 19.5014 5.29049 20.3727 6.08917 21.0915C6.88784 21.8103 7.82222 22.3621 8.83732 22.7144C9.85242 23.0667 10.9277 23.2124 12 23.1429C17.52 23.1429 20.3828 19.7143 20.5714 15.4286C20.7943 10.2858 17.1429 3.96006 10.5429 0.908631Z" stroke="#FBFBFB" stroke-width="1.71429" stroke-linecap="round" stroke-linejoin="round"/>
<path d="M16.2857 15.4286C16.2857 16.3379 15.9245 17.21 15.2815 17.853C14.6385 18.4959 13.7664 18.8572 12.8571 18.8572" stroke="#FBFBFB" stroke-width="1.71429" stroke-linecap="round" stroke-linejoin="round"/>
</g>
<defs>
<clipPath id="clip0_72_39">
<rect width="24" height="24" fill="white"/>
</clipPath>
</defs>
</svg>
