<svg width="14" height="14" viewBox="0 0 14 14" fill="none" xmlns="http://www.w3.org/2000/svg">
<g clip-path="url(#clip0_52_2130)">
<path d="M10.5 7.99999C10.5023 7.37592 10.3377 6.76257 10.0233 6.22349C9.70888 5.68441 9.25603 5.23921 8.71168 4.934C8.16732 4.62879 7.55126 4.47469 6.92732 4.48765C6.30338 4.50061 5.69425 4.68016 5.16303 5.00771C4.63182 5.33525 4.19785 5.79888 3.90607 6.35055C3.6143 6.90222 3.47534 7.52187 3.50359 8.14531C3.53184 8.76875 3.72626 9.3733 4.06673 9.89632C4.4072 10.4193 4.88132 10.8418 5.43998 11.12V12.84C5.44258 12.9417 5.48482 13.0383 5.55768 13.1093C5.63054 13.1803 5.72825 13.22 5.82998 13.22H8.16998C8.2717 13.22 8.36941 13.1803 8.44227 13.1093C8.51513 13.0383 8.55737 12.9417 8.55998 12.84V11.09C9.13622 10.8031 9.62219 10.3629 9.96446 9.81778C10.3067 9.27262 10.492 8.64364 10.5 7.99999V7.99999Z" stroke="#FBFBFB" stroke-linecap="round" stroke-linejoin="round"/>
<path d="M7 0.809998V2.31" stroke="#FBFBFB" stroke-linecap="round" stroke-linejoin="round"/>
<path d="M10.9995 2.24L9.93945 3.31" stroke="#FBFBFB" stroke-linecap="round" stroke-linejoin="round"/>
<path d="M13.2793 5.34H11.7793" stroke="#FBFBFB" stroke-linecap="round" stroke-linejoin="round"/>
<path d="M3 2.24L4.06 3.31" stroke="#FBFBFB" stroke-linecap="round" stroke-linejoin="round"/>
<path d="M0.719727 5.34H2.21973" stroke="#FBFBFB" stroke-linecap="round" stroke-linejoin="round"/>
</g>
<defs>
<clipPath id="clip0_52_2130">
<rect width="14" height="14" fill="white"/>
</clipPath>
</defs>
</svg>
