<svg width="16" height="16" viewBox="0 0 16 16" fill="none" xmlns="http://www.w3.org/2000/svg">
<path d="M13.1429 5.71439C13.1429 8.5601 8 15.4287 8 15.4287C8 15.4287 2.85715 8.5601 2.85715 5.71439C2.85715 4.35042 3.39898 3.04231 4.36346 2.07784C5.32793 1.11337 6.63603 0.571533 8 0.571533C9.36397 0.571533 10.6721 1.11337 11.6366 2.07784C12.601 3.04231 13.1429 4.35042 13.1429 5.71439V5.71439Z" stroke="#FBFBFB" stroke-width="1.14286" stroke-linecap="round" stroke-linejoin="round"/>
<path d="M7.99999 7.42857C8.94677 7.42857 9.71428 6.66106 9.71428 5.71429C9.71428 4.76751 8.94677 4 7.99999 4C7.05322 4 6.28571 4.76751 6.28571 5.71429C6.28571 6.66106 7.05322 7.42857 7.99999 7.42857Z" stroke="#FBFBFB" stroke-width="1.14286" stroke-linecap="round" stroke-linejoin="round"/>
</svg>
