<svg width="40" height="40" viewBox="0 0 40 40" fill="none" xmlns="http://www.w3.org/2000/svg">
<path d="M20 37.8571C29.4678 37.8571 37.1429 30.182 37.1429 20.7143C37.1429 11.2465 29.4678 3.57141 20 3.57141C10.5323 3.57141 2.85718 11.2465 2.85718 20.7143C2.85718 30.182 10.5323 37.8571 20 37.8571Z" stroke="#FBFBFB" stroke-width="2.85714" stroke-linecap="round" stroke-linejoin="round"/>
<path d="M20.0001 29.2857C24.734 29.2857 28.5716 25.4481 28.5716 20.7143C28.5716 15.9804 24.734 12.1428 20.0001 12.1428C15.2663 12.1428 11.4287 15.9804 11.4287 20.7143C11.4287 25.4481 15.2663 29.2857 20.0001 29.2857Z" stroke="#FBFBFB" stroke-width="2.85714" stroke-linecap="round" stroke-linejoin="round"/>
<path d="M20.0001 22.1428C20.7891 22.1428 21.4287 21.5032 21.4287 20.7142C21.4287 19.9252 20.7891 19.2856 20.0001 19.2856C19.2111 19.2856 18.5715 19.9252 18.5715 20.7142C18.5715 21.5032 19.2111 22.1428 20.0001 22.1428Z" stroke="#FBFBFB" stroke-width="2.85714" stroke-linecap="round" stroke-linejoin="round"/>
</svg>
