<svg width="16" height="16" viewBox="0 0 16 16" fill="none" xmlns="http://www.w3.org/2000/svg">
<g clip-path="url(#clip0_147_10)">
<path d="M10.0114 14.8574C10.7152 15.3114 11.5539 15.5093 12.3865 15.4177C13.219 15.3261 13.9946 14.9507 14.5829 14.3545L15.0972 13.8516C15.3226 13.621 15.4489 13.3113 15.4489 12.9888C15.4489 12.6663 15.3226 12.3565 15.0972 12.1259L12.9143 9.96593C12.6856 9.74118 12.3778 9.61525 12.0572 9.61525C11.7365 9.61525 11.4287 9.74118 11.2 9.96593V9.96593C10.9694 10.1914 10.6597 10.3176 10.3372 10.3176C10.0146 10.3176 9.70492 10.1914 9.4743 9.96593L6.04573 6.53736C5.93135 6.42464 5.84053 6.29032 5.77854 6.14219C5.71654 5.99406 5.68462 5.83508 5.68462 5.6745C5.68462 5.51392 5.71654 5.35494 5.77854 5.20681C5.84053 5.05868 5.93135 4.92436 6.04573 4.81164V4.81164C6.27048 4.58295 6.39641 4.27514 6.39641 3.9545C6.39641 3.63386 6.27048 3.32605 6.04573 3.09736L3.8743 0.925929C3.64368 0.700461 3.33397 0.574219 3.01144 0.574219C2.68892 0.574219 2.37921 0.700461 2.14859 0.925929L1.64573 1.44022C1.04955 2.02849 0.674112 2.8041 0.582533 3.63663C0.490955 4.46917 0.688825 5.30784 1.14287 6.01164C3.50864 9.49819 6.5188 12.5006 10.0114 14.8574V14.8574Z" stroke="#FBFBFB" stroke-width="1.14286" stroke-linecap="round" stroke-linejoin="round"/>
</g>
<defs>
<clipPath id="clip0_147_10">
<rect width="16" height="16" fill="white"/>
</clipPath>
</defs>
</svg>
