<svg width="14" height="14" viewBox="0 0 14 14" fill="none" xmlns="http://www.w3.org/2000/svg">
<g clip-path="url(#clip0_52_2528)">
<path d="M7.36 13.43C7.12832 13.5194 6.87168 13.5194 6.64 13.43V13.43C4.83069 12.7206 3.27713 11.4824 2.18188 9.877C1.08664 8.2716 0.500536 6.37342 0.5 4.43V1.5C0.5 1.23478 0.605357 0.98043 0.792893 0.792893C0.98043 0.605357 1.23478 0.5 1.5 0.5H12.5C12.7652 0.5 13.0196 0.605357 13.2071 0.792893C13.3946 0.98043 13.5 1.23478 13.5 1.5V4.42C13.5015 6.36513 12.9163 8.26549 11.8209 9.87287C10.7256 11.4803 9.17089 12.7199 7.36 13.43V13.43Z" stroke="#FBFBFB" stroke-linecap="round" stroke-linejoin="round"/>
<path d="M8.5 5.5H5.5C4.94772 5.5 4.5 5.94772 4.5 6.5V8.5C4.5 9.05228 4.94772 9.5 5.5 9.5H8.5C9.05228 9.5 9.5 9.05228 9.5 8.5V6.5C9.5 5.94772 9.05228 5.5 8.5 5.5Z" stroke="#FBFBFB" stroke-linecap="round" stroke-linejoin="round"/>
<path d="M8.5 5.5V4.5C8.5 4.30302 8.4612 4.10796 8.38582 3.92597C8.31044 3.74399 8.19995 3.57863 8.06066 3.43934C7.92137 3.30005 7.75601 3.18956 7.57403 3.11418C7.39204 3.0388 7.19698 3 7 3C6.80302 3 6.60796 3.0388 6.42597 3.11418C6.24399 3.18956 6.07863 3.30005 5.93934 3.43934C5.80005 3.57863 5.68956 3.74399 5.61418 3.92597C5.5388 4.10796 5.5 4.30302 5.5 4.5V5.5" stroke="#FBFBFB" stroke-linecap="round" stroke-linejoin="round"/>
</g>
<defs>
<clipPath id="clip0_52_2528">
<rect width="14" height="14" fill="white"/>
</clipPath>
</defs>
</svg>
