<svg width="14" height="14" viewBox="0 0 14 14" fill="none" xmlns="http://www.w3.org/2000/svg">
<g clip-path="url(#clip0_52_1167)">
<path d="M6.87012 9.5C9.3554 9.5 11.3701 7.48528 11.3701 5C11.3701 2.51472 9.3554 0.5 6.87012 0.5C4.38484 0.5 2.37012 2.51472 2.37012 5C2.37012 7.48528 4.38484 9.5 6.87012 9.5Z" stroke="#FBFBFB" stroke-linecap="round" stroke-linejoin="round"/>
<path d="M6.87012 7C7.97469 7 8.87012 6.10457 8.87012 5C8.87012 3.89543 7.97469 3 6.87012 3C5.76555 3 4.87012 3.89543 4.87012 5C4.87012 6.10457 5.76555 7 6.87012 7Z" stroke="#FBFBFB" stroke-linecap="round" stroke-linejoin="round"/>
<path d="M6.00038 9.42L5.12038 13.12C5.10297 13.1903 5.07077 13.2561 5.02594 13.313C4.98111 13.3699 4.92467 13.4166 4.86038 13.45C4.79253 13.4795 4.71935 13.4946 4.64538 13.4946C4.57142 13.4946 4.49824 13.4795 4.43038 13.45L1.11038 12C1.04074 11.9671 0.979468 11.9188 0.931153 11.8588C0.882838 11.7988 0.848741 11.7287 0.83142 11.6536C0.814099 11.5786 0.814005 11.5005 0.831145 11.4254C0.848285 11.3503 0.882214 11.2801 0.930384 11.22L3.50038 8" stroke="#FBFBFB" stroke-linecap="round" stroke-linejoin="round"/>
<path d="M8 9.37L8.9 13.12C8.9179 13.1915 8.95138 13.2582 8.99806 13.3152C9.04474 13.3723 9.10345 13.4183 9.17 13.45C9.23599 13.4798 9.30758 13.4952 9.38 13.4952C9.45242 13.4952 9.52401 13.4798 9.59 13.45L12.89 12C12.9607 11.9675 13.0228 11.9189 13.0714 11.8581C13.12 11.7974 13.1538 11.7261 13.17 11.65C13.189 11.5756 13.1898 11.4976 13.1724 11.4228C13.155 11.348 13.1199 11.2784 13.07 11.22L10.39 7.81" stroke="#FBFBFB" stroke-linecap="round" stroke-linejoin="round"/>
</g>
<defs>
<clipPath id="clip0_52_1167">
<rect width="14" height="14" fill="white"/>
</clipPath>
</defs>
</svg>
