<svg width="24" height="24" viewBox="0 0 24 24" fill="none" xmlns="http://www.w3.org/2000/svg">
<path d="M21.9771 6.42856L17.1429 8.57142V5.99999C17.1429 5.54533 16.9622 5.1093 16.6408 4.78781C16.3193 4.46632 15.8832 4.28571 15.4286 4.28571H2.57143C2.11678 4.28571 1.68074 4.46632 1.35925 4.78781C1.03776 5.1093 0.857147 5.54533 0.857147 5.99999V18C0.857147 18.4546 1.03776 18.8907 1.35925 19.2122C1.68074 19.5337 2.11678 19.7143 2.57143 19.7143H15.4286C15.8832 19.7143 16.3193 19.5337 16.6408 19.2122C16.9622 18.8907 17.1429 18.4546 17.1429 18V15.4286L21.9771 17.5714C22.1075 17.6217 22.2481 17.6394 22.3869 17.6229C22.5256 17.6064 22.6582 17.5563 22.7731 17.4769C22.888 17.3974 22.9818 17.2911 23.0462 17.1672C23.1107 17.0432 23.1438 16.9054 23.1429 16.7657V7.23428C23.1438 7.09458 23.1107 6.95676 23.0462 6.83281C22.9818 6.70887 22.888 6.60255 22.7731 6.52312C22.6582 6.44369 22.5256 6.39355 22.3869 6.37707C22.2481 6.36059 22.1075 6.37827 21.9771 6.42856V6.42856Z" stroke="#FBFBFB" stroke-width="1.71429" stroke-linecap="round" stroke-linejoin="round"/>
</svg>
