<svg width="40" height="40" viewBox="0 0 40 40" fill="none" xmlns="http://www.w3.org/2000/svg">
<path d="M37.8 18.0857C38.2738 18.6107 38.5361 19.2928 38.5361 20C38.5361 20.7072 38.2738 21.3893 37.8 21.9143C34.8 25.1428 27.9714 31.4286 20 31.4286C12.0286 31.4286 5.19998 25.1428 2.19998 21.9143C1.72615 21.3893 1.46387 20.7072 1.46387 20C1.46387 19.2928 1.72615 18.6107 2.19998 18.0857C5.19998 14.8571 12.0286 8.57141 20 8.57141C27.9714 8.57141 34.8 14.8571 37.8 18.0857Z" stroke="#FBFBFB" stroke-width="2.85714" stroke-linecap="round" stroke-linejoin="round"/>
<path d="M19.9999 25.7142C23.1558 25.7142 25.7142 23.1558 25.7142 19.9999C25.7142 16.844 23.1558 14.2856 19.9999 14.2856C16.844 14.2856 14.2856 16.844 14.2856 19.9999C14.2856 23.1558 16.844 25.7142 19.9999 25.7142Z" stroke="#FBFBFB" stroke-width="2.85714" stroke-linecap="round" stroke-linejoin="round"/>
</svg>
