<svg width="24" height="24" viewBox="0 0 24 24" fill="none" xmlns="http://www.w3.org/2000/svg">
<g clip-path="url(#clip0_286_18)">
<path d="M12.84 1.86847L15.5657 7.37133C15.6277 7.511 15.7252 7.63198 15.8486 7.72221C15.9719 7.81245 16.1167 7.86879 16.2686 7.88561L22.2857 8.77704C22.4599 8.79943 22.6242 8.87093 22.7593 8.98319C22.8944 9.09545 22.9948 9.24383 23.0487 9.411C23.1026 9.57818 23.1079 9.75725 23.0639 9.92729C23.0198 10.0973 22.9283 10.2513 22.8 10.3713L18.4629 14.6742C18.3522 14.7776 18.2691 14.9071 18.2212 15.0508C18.1733 15.1945 18.1621 15.3479 18.1886 15.497L19.2343 21.5485C19.2646 21.7224 19.2454 21.9012 19.1791 22.0648C19.1127 22.2283 19.0017 22.37 18.8588 22.4736C18.7159 22.5772 18.5468 22.6386 18.3708 22.6508C18.1947 22.663 18.0187 22.6256 17.8629 22.5428L12.4457 19.6799C12.307 19.6118 12.1545 19.5764 12 19.5764C11.8455 19.5764 11.693 19.6118 11.5543 19.6799L6.13715 22.5428C5.9813 22.6256 5.80532 22.663 5.62925 22.6508C5.45317 22.6386 5.28407 22.5772 5.14117 22.4736C4.99828 22.37 4.88733 22.2283 4.82095 22.0648C4.75458 21.9012 4.73544 21.7224 4.76572 21.5485L5.81143 15.4285C5.83794 15.2793 5.82673 15.1259 5.77882 14.9822C5.73092 14.8385 5.64784 14.709 5.53715 14.6056L1.14858 10.3713C1.01874 10.2481 0.927433 10.0898 0.885714 9.91569C0.843996 9.74159 0.853656 9.55913 0.913525 9.39041C0.973394 9.22169 1.0809 9.07395 1.22303 8.96508C1.36515 8.85621 1.5358 8.7909 1.71429 8.77704L7.73143 7.88561C7.88332 7.86879 8.02813 7.81245 8.15146 7.72221C8.27478 7.63198 8.3723 7.511 8.43429 7.37133L11.16 1.86847C11.2342 1.7082 11.3528 1.57251 11.5016 1.47741C11.6504 1.38232 11.8234 1.33179 12 1.33179C12.1766 1.33179 12.3496 1.38232 12.4984 1.47741C12.6472 1.57251 12.7658 1.7082 12.84 1.86847V1.86847Z" stroke="#FBFBFB" stroke-linecap="round" stroke-linejoin="round"/>
<path d="M9.01215 14.1025L11.1515 15.814C11.2089 15.8613 11.2762 15.8952 11.3484 15.9133C11.4206 15.9313 11.4959 15.9331 11.5689 15.9183C11.6426 15.9045 11.7124 15.875 11.7736 15.8318C11.8348 15.7886 11.886 15.7327 11.9237 15.6679L15.2736 9.92822" stroke="#FBFBFB" stroke-linecap="round" stroke-linejoin="round"/>
</g>
<defs>
<clipPath id="clip0_286_18">
<rect width="24" height="24" fill="white"/>
</clipPath>
</defs>
</svg>
