<svg width="51" height="44" viewBox="0 0 51 44" fill="none" xmlns="http://www.w3.org/2000/svg">
<path d="M23.4774 13.5158L34.4981 4.98522L29.3945 4.93591L22.9596 9.91619C22.4687 10.3396 22.1934 10.3324 21.7022 9.91619L16.1302 5.62625C14.2811 4.17161 11.5444 5.23177 11.5444 7.82053V23.1805C11.5444 25.4734 13.8373 27.1499 16.1795 25.3748L35.2624 10.7051V20.1233C34.7157 22.0745 34.0631 22.5934 32.0573 22.1203L28.7042 19.5809C27.9523 19.1469 27.5088 19.1049 26.6578 19.5809L15.5139 28.1854H20.6914L27.0277 23.2545C27.5878 22.8575 27.8733 22.8648 28.3344 23.2545L33.8077 27.4458C35.8048 29.0976 38.147 27.717 38.4675 25.6706V9.6943C38.4675 7.69725 36.3472 6.46451 34.4981 7.30278L14.7989 22.3422V12.8994C15.3081 10.9826 16.0594 10.6345 18.1273 11.1489L21.2338 13.5158C22.06 14.0727 22.5532 14.0493 23.4774 13.5158Z" fill="#FBFBFB" stroke="#878787" stroke-width="0.0493097"/>
<circle cx="44.2119" cy="16.3018" r="1.7998" fill="#CC0118"/>
<circle cx="5.7998" cy="16.1539" r="1.7998" fill="#CC0118"/>
<mask id="path-4-outside-1_64_55" maskUnits="userSpaceOnUse" x="13.3303" y="32.1608" width="23" height="6" fill="black">
<rect fill="white" x="13.3303" y="32.1608" width="23" height="6"/>
<path d="M15.9664 37.1608H14.8136V34.8896C14.8136 34.6226 14.7951 34.4293 14.7583 34.3097C14.6985 34.0934 14.5719 33.9622 14.3786 33.9162V33.7643H15.9664V37.1608ZM15.9457 32.86C15.9457 33.0303 15.8859 33.1752 15.7662 33.2949C15.6466 33.4145 15.5039 33.4744 15.3382 33.4744C15.1679 33.4744 15.023 33.4145 14.9033 33.2949C14.7882 33.1752 14.7307 33.0303 14.7307 32.86C14.7307 32.6943 14.7882 32.5516 14.9033 32.432C15.023 32.3123 15.1679 32.2525 15.3382 32.2525C15.5039 32.2525 15.6466 32.3123 15.7662 32.432C15.8859 32.5516 15.9457 32.6943 15.9457 32.86ZM23.0152 32.3353L21.0546 37.1608H19.8396L18.2795 33.4813C18.146 33.1729 18.0379 32.9589 17.955 32.8393C17.8262 32.6598 17.6674 32.5424 17.4787 32.4872V32.3353H19.1907L20.3988 35.5316C20.4402 35.6466 20.4747 35.7801 20.5024 35.932H20.5162C20.5346 35.8169 20.5691 35.6811 20.6197 35.5247V35.5316L21.7381 32.3353H23.0152ZM26.4284 36.2426V35.6144C25.9222 35.619 25.6691 35.787 25.6691 36.1184C25.6691 36.3439 25.7841 36.4566 26.0142 36.4566C26.2167 36.4566 26.3548 36.3853 26.4284 36.2426ZM27.9679 36.3945V37.0227C27.7516 37.17 27.4962 37.2436 27.2016 37.2436C26.8749 37.2436 26.6632 37.1239 26.5665 36.8846C26.4699 36.9997 26.3249 37.0917 26.1316 37.1608C25.9705 37.216 25.814 37.2436 25.6622 37.2436C25.3538 37.2436 25.1007 37.1769 24.9028 37.0434C24.6635 36.8777 24.5438 36.6223 24.5438 36.2771C24.5438 35.8721 24.744 35.5592 25.1444 35.3383C25.485 35.1496 25.913 35.0483 26.4284 35.0345V34.8896C26.4284 34.6364 26.2697 34.5099 25.9521 34.5099C25.5471 34.5099 25.1628 34.6502 24.7993 34.931V34.0405C25.1858 33.8011 25.6622 33.6815 26.2283 33.6815C26.6378 33.6815 26.9485 33.762 27.1602 33.9231C27.4409 34.1348 27.5813 34.5007 27.5813 35.0207V36.2702C27.5813 36.4037 27.6319 36.4704 27.7332 36.4704C27.816 36.4704 27.8943 36.4451 27.9679 36.3945ZM32.4043 33.9162L32.1765 34.7791C32.0477 34.6687 31.8843 34.6134 31.6864 34.6134C31.4563 34.6134 31.2814 34.6963 31.1617 34.862C31.0513 35.0092 30.996 35.2048 30.996 35.4487V37.1608H29.8363V34.8896C29.8363 34.6226 29.8202 34.4293 29.788 34.3097C29.7281 34.098 29.6016 33.9668 29.4083 33.9162V33.7643H30.8856L30.9201 34.1578C31.1042 33.8449 31.378 33.6884 31.7416 33.6884C32.0177 33.6884 32.2386 33.7643 32.4043 33.9162ZM35.4037 37.1608H34.2508V34.8896C34.2508 34.6226 34.2324 34.4293 34.1956 34.3097C34.1358 34.0934 34.0092 33.9622 33.8159 33.9162V33.7643H35.4037V37.1608ZM35.383 32.86C35.383 33.0303 35.3231 33.1752 35.2035 33.2949C35.0838 33.4145 34.9411 33.4744 34.7755 33.4744C34.6052 33.4744 34.4602 33.4145 34.3406 33.2949C34.2255 33.1752 34.168 33.0303 34.168 32.86C34.168 32.6943 34.2255 32.5516 34.3406 32.432C34.4602 32.3123 34.6052 32.2525 34.7755 32.2525C34.9411 32.2525 35.0838 32.3123 35.2035 32.432C35.3231 32.5516 35.383 32.6943 35.383 32.86Z"/>
</mask>
<path d="M15.9664 37.1608H14.8136V34.8896C14.8136 34.6226 14.7951 34.4293 14.7583 34.3097C14.6985 34.0934 14.5719 33.9622 14.3786 33.9162V33.7643H15.9664V37.1608ZM15.9457 32.86C15.9457 33.0303 15.8859 33.1752 15.7662 33.2949C15.6466 33.4145 15.5039 33.4744 15.3382 33.4744C15.1679 33.4744 15.023 33.4145 14.9033 33.2949C14.7882 33.1752 14.7307 33.0303 14.7307 32.86C14.7307 32.6943 14.7882 32.5516 14.9033 32.432C15.023 32.3123 15.1679 32.2525 15.3382 32.2525C15.5039 32.2525 15.6466 32.3123 15.7662 32.432C15.8859 32.5516 15.9457 32.6943 15.9457 32.86ZM23.0152 32.3353L21.0546 37.1608H19.8396L18.2795 33.4813C18.146 33.1729 18.0379 32.9589 17.955 32.8393C17.8262 32.6598 17.6674 32.5424 17.4787 32.4872V32.3353H19.1907L20.3988 35.5316C20.4402 35.6466 20.4747 35.7801 20.5024 35.932H20.5162C20.5346 35.8169 20.5691 35.6811 20.6197 35.5247V35.5316L21.7381 32.3353H23.0152ZM26.4284 36.2426V35.6144C25.9222 35.619 25.6691 35.787 25.6691 36.1184C25.6691 36.3439 25.7841 36.4566 26.0142 36.4566C26.2167 36.4566 26.3548 36.3853 26.4284 36.2426ZM27.9679 36.3945V37.0227C27.7516 37.17 27.4962 37.2436 27.2016 37.2436C26.8749 37.2436 26.6632 37.1239 26.5665 36.8846C26.4699 36.9997 26.3249 37.0917 26.1316 37.1608C25.9705 37.216 25.814 37.2436 25.6622 37.2436C25.3538 37.2436 25.1007 37.1769 24.9028 37.0434C24.6635 36.8777 24.5438 36.6223 24.5438 36.2771C24.5438 35.8721 24.744 35.5592 25.1444 35.3383C25.485 35.1496 25.913 35.0483 26.4284 35.0345V34.8896C26.4284 34.6364 26.2697 34.5099 25.9521 34.5099C25.5471 34.5099 25.1628 34.6502 24.7993 34.931V34.0405C25.1858 33.8011 25.6622 33.6815 26.2283 33.6815C26.6378 33.6815 26.9485 33.762 27.1602 33.9231C27.4409 34.1348 27.5813 34.5007 27.5813 35.0207V36.2702C27.5813 36.4037 27.6319 36.4704 27.7332 36.4704C27.816 36.4704 27.8943 36.4451 27.9679 36.3945ZM32.4043 33.9162L32.1765 34.7791C32.0477 34.6687 31.8843 34.6134 31.6864 34.6134C31.4563 34.6134 31.2814 34.6963 31.1617 34.862C31.0513 35.0092 30.996 35.2048 30.996 35.4487V37.1608H29.8363V34.8896C29.8363 34.6226 29.8202 34.4293 29.788 34.3097C29.7281 34.098 29.6016 33.9668 29.4083 33.9162V33.7643H30.8856L30.9201 34.1578C31.1042 33.8449 31.378 33.6884 31.7416 33.6884C32.0177 33.6884 32.2386 33.7643 32.4043 33.9162ZM35.4037 37.1608H34.2508V34.8896C34.2508 34.6226 34.2324 34.4293 34.1956 34.3097C34.1358 34.0934 34.0092 33.9622 33.8159 33.9162V33.7643H35.4037V37.1608ZM35.383 32.86C35.383 33.0303 35.3231 33.1752 35.2035 33.2949C35.0838 33.4145 34.9411 33.4744 34.7755 33.4744C34.6052 33.4744 34.4602 33.4145 34.3406 33.2949C34.2255 33.1752 34.168 33.0303 34.168 32.86C34.168 32.6943 34.2255 32.5516 34.3406 32.432C34.4602 32.3123 34.6052 32.2525 34.7755 32.2525C34.9411 32.2525 35.0838 32.3123 35.2035 32.432C35.3231 32.5516 35.383 32.6943 35.383 32.86Z" fill="#FBFBFB"/>
<path d="M15.9664 37.1608V37.2101H16.0157V37.1608H15.9664ZM14.8136 37.1608H14.7642V37.2101H14.8136V37.1608ZM14.7583 34.3097L14.7108 34.3228L14.7112 34.3242L14.7583 34.3097ZM14.3786 33.9162H14.3293V33.9551L14.3672 33.9642L14.3786 33.9162ZM14.3786 33.7643V33.715H14.3293V33.7643H14.3786ZM15.9664 33.7643H16.0157V33.715H15.9664V33.7643ZM15.7662 33.2949L15.8011 33.3298H15.8011L15.7662 33.2949ZM14.9033 33.2949L14.8677 33.3291L14.8684 33.3298L14.9033 33.2949ZM14.9033 32.432L14.8684 32.3971L14.8678 32.3978L14.9033 32.432ZM15.7662 32.432L15.8011 32.3971L15.8011 32.3971L15.7662 32.432ZM15.9664 37.1115H14.8136V37.2101H15.9664V37.1115ZM14.8629 37.1608V34.8896H14.7642V37.1608H14.8629ZM14.8629 34.8896C14.8629 34.622 14.8446 34.4224 14.8055 34.2952L14.7112 34.3242C14.7457 34.4363 14.7642 34.6233 14.7642 34.8896H14.8629ZM14.8059 34.2965C14.742 34.0656 14.6034 33.919 14.3901 33.8682L14.3672 33.9642C14.5405 34.0054 14.655 34.1211 14.7108 34.3228L14.8059 34.2965ZM14.428 33.9162V33.7643H14.3293V33.9162H14.428ZM14.3786 33.8136H15.9664V33.715H14.3786V33.8136ZM15.9171 33.7643V37.1608H16.0157V33.7643H15.9171ZM15.8964 32.86C15.8964 33.0173 15.8417 33.1497 15.7314 33.26L15.8011 33.3298C15.9301 33.2008 15.995 33.0432 15.995 32.86H15.8964ZM15.7314 33.26C15.6207 33.3707 15.4905 33.4251 15.3382 33.4251V33.5237C15.5173 33.5237 15.6724 33.4584 15.8011 33.3298L15.7314 33.26ZM15.3382 33.4251C15.1809 33.4251 15.0485 33.3704 14.9382 33.26L14.8684 33.3298C14.9974 33.4587 15.1549 33.5237 15.3382 33.5237V33.4251ZM14.9388 33.2607C14.8329 33.1505 14.78 33.0179 14.78 32.86H14.6814C14.6814 33.0426 14.7436 33.2 14.8678 33.3291L14.9388 33.2607ZM14.78 32.86C14.78 32.7071 14.8326 32.5766 14.9388 32.4661L14.8678 32.3978C14.7439 32.5266 14.6814 32.6815 14.6814 32.86H14.78ZM14.9382 32.4668C15.0485 32.3565 15.1809 32.3018 15.3382 32.3018V32.2032C15.1549 32.2032 14.9974 32.2681 14.8684 32.3971L14.9382 32.4668ZM15.3382 32.3018C15.4905 32.3018 15.6207 32.3562 15.7314 32.4668L15.8011 32.3971C15.6724 32.2684 15.5173 32.2032 15.3382 32.2032V32.3018ZM15.7314 32.4668C15.842 32.5775 15.8964 32.7077 15.8964 32.86H15.995C15.995 32.6809 15.9298 32.5258 15.8011 32.3971L15.7314 32.4668ZM23.0152 32.3353L23.0609 32.3539L23.0884 32.286H23.0152V32.3353ZM21.0546 37.1608V37.2101H21.0878L21.1003 37.1793L21.0546 37.1608ZM19.8396 37.1608L19.7942 37.18L19.807 37.2101H19.8396V37.1608ZM18.2795 33.4813L18.3249 33.462L18.3247 33.4617L18.2795 33.4813ZM17.955 32.8393L17.9956 32.8112L17.9951 32.8105L17.955 32.8393ZM17.4787 32.4872H17.4294V32.5241L17.4648 32.5345L17.4787 32.4872ZM17.4787 32.3353V32.286H17.4294V32.3353H17.4787ZM19.1907 32.3353L19.2368 32.3179L19.2248 32.286H19.1907V32.3353ZM20.3988 35.5316L20.4452 35.5149L20.4449 35.5141L20.3988 35.5316ZM20.5024 35.932L20.4538 35.9408L20.4612 35.9813H20.5024V35.932ZM20.5162 35.932V35.9813H20.5582L20.5648 35.9398L20.5162 35.932ZM20.6197 35.5247H20.669L20.5728 35.5095L20.6197 35.5247ZM20.6197 35.5316H20.5704L20.6663 35.5479L20.6197 35.5316ZM21.7381 32.3353V32.286H21.7031L21.6915 32.319L21.7381 32.3353ZM22.9695 32.3168L21.0089 37.1422L21.1003 37.1793L23.0609 32.3539L22.9695 32.3168ZM21.0546 37.1115H19.8396V37.2101H21.0546V37.1115ZM19.885 37.1415L18.3249 33.462L18.2341 33.5005L19.7942 37.18L19.885 37.1415ZM18.3247 33.4617C18.1912 33.1532 18.0814 32.9352 17.9956 32.8112L17.9145 32.8673C17.9943 32.9826 18.1008 33.1927 18.2342 33.5009L18.3247 33.4617ZM17.9951 32.8105C17.8606 32.6233 17.6931 32.4986 17.4925 32.4399L17.4648 32.5345C17.6417 32.5863 17.7917 32.6963 17.915 32.868L17.9951 32.8105ZM17.528 32.4872V32.3353H17.4294V32.4872H17.528ZM17.4787 32.3846H19.1907V32.286H17.4787V32.3846ZM19.1446 32.3528L20.3527 35.549L20.4449 35.5141L19.2368 32.3179L19.1446 32.3528ZM20.3524 35.5483C20.3927 35.6602 20.4266 35.7909 20.4538 35.9408L20.5509 35.9231C20.5229 35.7693 20.4877 35.6331 20.4452 35.5149L20.3524 35.5483ZM20.5024 35.9813H20.5162V35.8827H20.5024V35.9813ZM20.5648 35.9398C20.5827 35.828 20.6165 35.6948 20.6666 35.5399L20.5728 35.5095C20.5217 35.6675 20.4864 35.8058 20.4675 35.9242L20.5648 35.9398ZM20.5704 35.5247V35.5316H20.669V35.5247H20.5704ZM20.6663 35.5479L21.7846 32.3516L21.6915 32.319L20.5732 35.5153L20.6663 35.5479ZM21.7381 32.3846H23.0152V32.286H21.7381V32.3846ZM26.4284 36.2426L26.4723 36.2652L26.4778 36.2546V36.2426H26.4284ZM26.4284 35.6144H26.4778V35.5647L26.428 35.5651L26.4284 35.6144ZM27.9679 36.3945H28.0172V36.3008L27.94 36.3539L27.9679 36.3945ZM27.9679 37.0227L27.9956 37.0635L28.0172 37.0488V37.0227H27.9679ZM26.5665 36.8846L26.6122 36.8662L26.5815 36.7901L26.5288 36.8529L26.5665 36.8846ZM26.1316 37.1608L26.1476 37.2074L26.1482 37.2072L26.1316 37.1608ZM24.9028 37.0434L24.8747 37.084L24.8752 37.0843L24.9028 37.0434ZM25.1444 35.3383L25.1682 35.3815L25.1683 35.3814L25.1444 35.3383ZM26.4284 35.0345L26.4298 35.0838L26.4778 35.0825V35.0345H26.4284ZM24.7993 34.931H24.7499V35.0314L24.8294 34.97L24.7993 34.931ZM24.7993 34.0405L24.7733 33.9985L24.7499 34.013V34.0405H24.7993ZM27.1602 33.9231L27.1303 33.9623L27.1305 33.9625L27.1602 33.9231ZM26.4778 36.2426V35.6144H26.3791V36.2426H26.4778ZM26.428 35.5651C26.171 35.5674 25.9699 35.611 25.8317 35.7028C25.6899 35.7968 25.6198 35.9379 25.6198 36.1184H25.7184C25.7184 35.9674 25.7748 35.8589 25.8862 35.7849C26.0011 35.7087 26.1796 35.666 26.4289 35.6637L26.428 35.5651ZM25.6198 36.1184C25.6198 36.239 25.6506 36.3384 25.7209 36.4073C25.7909 36.4759 25.8918 36.5059 26.0142 36.5059V36.4073C25.9065 36.4073 25.8349 36.3809 25.7899 36.3368C25.7451 36.2929 25.7184 36.2233 25.7184 36.1184H25.6198ZM26.0142 36.5059C26.2295 36.5059 26.3878 36.4288 26.4723 36.2652L26.3846 36.22C26.3218 36.3418 26.204 36.4073 26.0142 36.4073V36.5059ZM27.9186 36.3945V37.0227H28.0172V36.3945H27.9186ZM27.9401 36.9819C27.733 37.123 27.4876 37.1943 27.2016 37.1943V37.2929C27.5048 37.2929 27.7702 37.217 27.9956 37.0635L27.9401 36.9819ZM27.2016 37.1943C27.0439 37.1943 26.9184 37.1654 26.822 37.1109C26.7265 37.0569 26.6567 36.9762 26.6122 36.8662L26.5208 36.9031C26.573 37.0324 26.6573 37.1311 26.7735 37.1968C26.8889 37.262 27.0326 37.2929 27.2016 37.2929V37.1943ZM26.5288 36.8529C26.4394 36.9593 26.303 37.0472 26.115 37.1143L26.1482 37.2072C26.3468 37.1363 26.5003 37.0401 26.6043 36.9163L26.5288 36.8529ZM26.1156 37.1141C25.9591 37.1678 25.808 37.1943 25.6622 37.1943V37.2929C25.8201 37.2929 25.982 37.2642 26.1476 37.2074L26.1156 37.1141ZM25.6622 37.1943C25.3608 37.1943 25.1181 37.1291 24.9304 37.0025L24.8752 37.0843C25.0834 37.2246 25.3468 37.2929 25.6622 37.2929V37.1943ZM24.9309 37.0029C24.7075 36.8482 24.5931 36.6096 24.5931 36.2771H24.4945C24.4945 36.635 24.6195 36.9073 24.8747 37.084L24.9309 37.0029ZM24.5931 36.2771C24.5931 35.8927 24.7811 35.595 25.1682 35.3815L25.1206 35.2951C24.7069 35.5233 24.4945 35.8515 24.4945 36.2771H24.5931ZM25.1683 35.3814C25.5001 35.1976 25.9198 35.0975 26.4298 35.0838L26.4271 34.9852C25.9062 34.9992 25.4699 35.1016 25.1205 35.2951L25.1683 35.3814ZM26.4778 35.0345V34.8896H26.3791V35.0345H26.4778ZM26.4778 34.8896C26.4778 34.7521 26.4341 34.6411 26.3401 34.5662C26.2483 34.493 26.1161 34.4606 25.9521 34.4606V34.5592C26.1057 34.5592 26.2117 34.59 26.2786 34.6434C26.3434 34.695 26.3791 34.7739 26.3791 34.8896H26.4778ZM25.9521 34.4606C25.5348 34.4606 25.1401 34.6055 24.7691 34.892L24.8294 34.97C25.1856 34.695 25.5595 34.5592 25.9521 34.5592V34.4606ZM24.8486 34.931V34.0405H24.7499V34.931H24.8486ZM24.8252 34.0824C25.2023 33.8489 25.6691 33.7308 26.2283 33.7308V33.6322C25.6552 33.6322 25.1694 33.7533 24.7733 33.9985L24.8252 34.0824ZM26.2283 33.7308C26.6325 33.7308 26.9308 33.8105 27.1303 33.9623L27.1901 33.8839C26.9662 33.7136 26.6432 33.6322 26.2283 33.6322V33.7308ZM27.1305 33.9625C27.3938 34.161 27.532 34.5084 27.532 35.0207H27.6306C27.6306 34.4929 27.4881 34.1086 27.1899 33.8837L27.1305 33.9625ZM27.532 35.0207V36.2702H27.6306V35.0207H27.532ZM27.532 36.2702C27.532 36.3418 27.5453 36.4045 27.58 36.4502C27.6166 36.4985 27.6707 36.5197 27.7332 36.5197V36.4211C27.6944 36.4211 27.6726 36.409 27.6586 36.3906C27.6426 36.3695 27.6306 36.3321 27.6306 36.2702H27.532ZM27.7332 36.5197C27.8268 36.5197 27.9147 36.4909 27.9958 36.4351L27.94 36.3539C27.8739 36.3993 27.8053 36.4211 27.7332 36.4211V36.5197ZM32.4043 33.9162L32.452 33.9288L32.4596 33.9L32.4376 33.8798L32.4043 33.9162ZM32.1765 34.7791L32.1444 34.8165L32.2041 34.8677L32.2242 34.7917L32.1765 34.7791ZM31.1617 34.862L31.2012 34.8915L31.2017 34.8908L31.1617 34.862ZM30.996 37.1608V37.2101H31.0454V37.1608H30.996ZM29.8363 37.1608H29.787V37.2101H29.8363V37.1608ZM29.788 34.3097L29.8356 34.2969L29.8354 34.2963L29.788 34.3097ZM29.4083 33.9162H29.359V33.9542L29.3958 33.9639L29.4083 33.9162ZM29.4083 33.7643V33.715H29.359V33.7643H29.4083ZM30.8856 33.7643L30.9347 33.76L30.9308 33.715H30.8856V33.7643ZM30.9201 34.1578L30.871 34.1621L30.8845 34.3157L30.9626 34.1828L30.9201 34.1578ZM32.3566 33.9036L32.1288 34.7665L32.2242 34.7917L32.452 33.9288L32.3566 33.9036ZM32.2086 34.7417C32.0694 34.6223 31.894 34.5641 31.6864 34.5641V34.6627C31.8746 34.6627 32.0259 34.715 32.1444 34.8165L32.2086 34.7417ZM31.6864 34.5641C31.4427 34.5641 31.2519 34.6528 31.1217 34.8331L31.2017 34.8908C31.3108 34.7397 31.4698 34.6627 31.6864 34.6627V34.5641ZM31.1223 34.8324C31.0036 34.9906 30.9467 35.1976 30.9467 35.4487H31.0454C31.0454 35.212 31.0989 35.0279 31.2012 34.8915L31.1223 34.8324ZM30.9467 35.4487V37.1608H31.0454V35.4487H30.9467ZM30.996 37.1115H29.8363V37.2101H30.996V37.1115ZM29.8856 37.1608V34.8896H29.787V37.1608H29.8856ZM29.8856 34.8896C29.8856 34.6221 29.8696 34.4232 29.8356 34.2969L29.7403 34.3225C29.7707 34.4354 29.787 34.6232 29.787 34.8896H29.8856ZM29.8354 34.2963C29.7714 34.0698 29.6329 33.9241 29.4208 33.8685L29.3958 33.9639C29.5702 34.0096 29.6848 34.1262 29.7405 34.3231L29.8354 34.2963ZM29.4576 33.9162V33.7643H29.359V33.9162H29.4576ZM29.4083 33.8136H30.8856V33.715H29.4083V33.8136ZM30.8365 33.7686L30.871 34.1621L30.9692 34.1535L30.9347 33.76L30.8365 33.7686ZM30.9626 34.1828C31.1378 33.8849 31.3955 33.7377 31.7416 33.7377V33.6391C31.3606 33.6391 31.0706 33.8048 30.8776 34.1328L30.9626 34.1828ZM31.7416 33.7377C32.0084 33.7377 32.2164 33.8108 32.371 33.9525L32.4376 33.8798C32.2609 33.7178 32.0271 33.6391 31.7416 33.6391V33.7377ZM35.4037 37.1608V37.2101H35.453V37.1608H35.4037ZM34.2508 37.1608H34.2015V37.2101H34.2508V37.1608ZM34.1956 34.3097L34.148 34.3228L34.1485 34.3242L34.1956 34.3097ZM33.8159 33.9162H33.7666V33.9551L33.8045 33.9642L33.8159 33.9162ZM33.8159 33.7643V33.715H33.7666V33.7643H33.8159ZM35.4037 33.7643H35.453V33.715H35.4037V33.7643ZM35.2035 33.2949L35.2383 33.3298L35.2035 33.2949ZM34.3406 33.2949L34.305 33.3291L34.3057 33.3298L34.3406 33.2949ZM34.3406 32.432L34.3057 32.3971L34.305 32.3978L34.3406 32.432ZM35.2035 32.432L35.2383 32.3971V32.3971L35.2035 32.432ZM35.4037 37.1115H34.2508V37.2101H35.4037V37.1115ZM34.3001 37.1608V34.8896H34.2015V37.1608H34.3001ZM34.3001 34.8896C34.3001 34.622 34.2818 34.4224 34.2427 34.2952L34.1485 34.3242C34.183 34.4363 34.2015 34.6233 34.2015 34.8896H34.3001ZM34.2431 34.2965C34.1792 34.0656 34.0407 33.919 33.8273 33.8682L33.8045 33.9642C33.9777 34.0054 34.0923 34.1211 34.1481 34.3228L34.2431 34.2965ZM33.8652 33.9162V33.7643H33.7666V33.9162H33.8652ZM33.8159 33.8136H35.4037V33.715H33.8159V33.8136ZM35.3544 33.7643V37.1608H35.453V33.7643H35.3544ZM35.3336 32.86C35.3336 33.0173 35.2789 33.1497 35.1686 33.26L35.2383 33.3298C35.3673 33.2008 35.4323 33.0432 35.4323 32.86H35.3336ZM35.1686 33.26C35.058 33.3707 34.9278 33.4251 34.7755 33.4251V33.5237C34.9545 33.5237 35.1097 33.4584 35.2383 33.3298L35.1686 33.26ZM34.7755 33.4251C34.6182 33.4251 34.4858 33.3704 34.3754 33.26L34.3057 33.3298C34.4347 33.4587 34.5922 33.5237 34.7755 33.5237V33.4251ZM34.3761 33.2607C34.2701 33.1505 34.2173 33.0179 34.2173 32.86H34.1187C34.1187 33.0426 34.1809 33.2 34.305 33.3291L34.3761 33.2607ZM34.2173 32.86C34.2173 32.7071 34.2699 32.5766 34.3761 32.4661L34.305 32.3978C34.1811 32.5266 34.1187 32.6815 34.1187 32.86H34.2173ZM34.3754 32.4668C34.4858 32.3565 34.6182 32.3018 34.7755 32.3018V32.2032C34.5922 32.2032 34.4347 32.2681 34.3057 32.3971L34.3754 32.4668ZM34.7755 32.3018C34.9278 32.3018 35.058 32.3562 35.1686 32.4668L35.2383 32.3971C35.1097 32.2684 34.9545 32.2032 34.7755 32.2032V32.3018ZM35.1686 32.4668C35.2792 32.5775 35.3336 32.7077 35.3336 32.86H35.4323C35.4323 32.6809 35.367 32.5258 35.2383 32.3971L35.1686 32.4668Z" fill="#878787" mask="url(#path-4-outside-1_64_55)"/>
<circle cx="34.6952" cy="33.147" r="0.690335" fill="#CC0118"/>
<circle cx="15.2672" cy="33.147" r="0.690335" fill="#CC0118"/>
</svg>
